<?xml version="1.0" encoding="UTF-8"?><svg id="Layer_2" xmlns="http://www.w3.org/2000/svg" viewBox="0 0 195.58 27.81"><defs><style>.cls-1{fill:#36a6b7;}.cls-1,.cls-2,.cls-3{stroke-width:0px;}.cls-2{fill:#348e9d;}.cls-3{fill:#d2648a;}</style></defs><g id="_レイヤー_1"><path class="cls-2" d="m8.32,7.38c1,0,1.93.29,2.81.86.87.58,1.58,1.35,2.11,2.33.54.98.81,2.07.81,3.28s-.27,2.27-.81,3.25c-.54.98-1.24,1.76-2.11,2.35-.87.59-1.81.88-2.81.88H3.02l.29-.52v5.96c0,.5-.15.92-.46,1.25s-.71.5-1.21.5-.87-.17-1.18-.5-.46-.75-.46-1.25V9.13c0-.5.17-.92.5-1.25s.75-.5,1.25-.5h6.56Zm0,9.67c.36,0,.72-.15,1.06-.46s.63-.7.86-1.19c.23-.49.35-1,.35-1.54s-.11-1.07-.35-1.55c-.23-.48-.52-.87-.86-1.17s-.7-.45-1.06-.45H2.96l.34-.52v7.34l-.32-.46h5.32Z"/><path class="cls-2" d="m33.44,27.52c-.5,0-.91-.17-1.24-.5-.33-.34-.49-.75-.49-1.25V7.98c0-.5.16-.92.49-1.25.33-.34.74-.5,1.24-.5s.91.17,1.24.5c.33.34.49.75.49,1.25v17.78c0,.5-.16.92-.49,1.25-.33.34-.74.5-1.24.5Zm9.15-15.4c.44,0,.82.18,1.15.55.33.36.49.72.49,1.06,0,.46-.23.89-.69,1.3l-8.66,7.97-.14-3.97,6.59-6.36c.36-.36.79-.55,1.27-.55Zm.43,15.37c-.5,0-.92-.19-1.27-.57l-5.32-5.64,2.62-2.42,5.18,5.64c.36.38.55.81.55,1.29s-.2.91-.59,1.22-.78.47-1.17.47Z"/><path class="cls-2" d="m54.35,27.81c-1.63,0-3.05-.34-4.24-1.02-1.2-.68-2.12-1.61-2.76-2.78s-.96-2.49-.96-3.97c0-1.73.35-3.2,1.05-4.42s1.62-2.15,2.75-2.81,2.33-.98,3.6-.98c.98,0,1.9.2,2.78.6.87.4,1.64.95,2.32,1.65.67.7,1.2,1.51,1.6,2.43s.59,1.9.59,2.94c-.02.46-.2.83-.55,1.12s-.75.43-1.21.43h-10.99l-.86-2.88h10.56l-.63.58v-.78c-.04-.56-.24-1.06-.59-1.5-.35-.44-.8-.79-1.32-1.05-.53-.26-1.09-.39-1.68-.39s-1.11.08-1.61.23-.93.41-1.3.78c-.37.36-.65.85-.86,1.47-.21.61-.32,1.39-.32,2.33,0,1.04.22,1.91.65,2.63.43.72.99,1.27,1.67,1.64.68.37,1.41.56,2.17.56.71,0,1.28-.06,1.7-.17s.76-.25,1.02-.42c.26-.16.49-.3.7-.42.35-.17.67-.26.98-.26.42,0,.77.14,1.05.43.28.29.42.62.42,1.01,0,.52-.27.99-.81,1.41-.5.42-1.2.79-2.1,1.11-.9.32-1.83.48-2.79.48Z"/><path class="cls-2" d="m78.12,8.35c.5.25.79.64.88,1.18.09.54-.05,1.03-.42,1.47-.25.35-.57.54-.96.58s-.79-.04-1.19-.23c-.46-.21-.94-.37-1.45-.49-.51-.11-1.04-.17-1.6-.17-1.04,0-1.96.16-2.78.49-.82.33-1.51.79-2.09,1.4-.57.6-1.01,1.32-1.31,2.14-.3.82-.45,1.74-.45,2.73,0,1.17.17,2.19.5,3.05.33.86.8,1.58,1.4,2.16.59.57,1.3,1,2.1,1.28.81.28,1.68.42,2.62.42.52,0,1.04-.05,1.56-.14.52-.1,1.02-.27,1.5-.52.4-.19.8-.26,1.19-.2.39.06.72.26.99.6.38.48.52.97.42,1.48-.11.51-.4.88-.88,1.11-.5.25-1.01.46-1.54.62s-1.06.29-1.6.37-1.08.13-1.64.13c-1.38,0-2.69-.22-3.93-.66-1.24-.44-2.34-1.09-3.31-1.96-.97-.86-1.73-1.94-2.29-3.24-.56-1.3-.83-2.8-.83-4.5,0-1.48.25-2.84.76-4.09s1.23-2.33,2.16-3.24c.93-.91,2.03-1.62,3.29-2.13,1.27-.51,2.65-.76,4.14-.76.84,0,1.67.1,2.48.29s1.56.47,2.27.83Z"/><path class="cls-2" d="m93.68,11.84c.5,0,.91.16,1.24.49.33.33.49.75.49,1.27v12.17c0,.5-.16.92-.49,1.25-.33.34-.74.5-1.24.5s-.91-.17-1.24-.5c-.33-.34-.49-.75-.49-1.25v-1.41l.63.26c0,.25-.13.55-.4.91-.27.35-.63.7-1.09,1.05s-1,.64-1.63.88c-.62.24-1.3.36-2.03.36-1.32,0-2.52-.34-3.6-1.02-1.07-.68-1.92-1.62-2.55-2.82-.62-1.2-.94-2.58-.94-4.13s.31-2.96.94-4.16c.62-1.2,1.46-2.14,2.52-2.82,1.06-.68,2.23-1.02,3.51-1.02.83,0,1.58.13,2.27.37s1.29.57,1.8.95.9.77,1.18,1.17c.28.39.42.72.42.99l-1.04.37v-2.1c0-.5.16-.92.49-1.25.33-.33.74-.5,1.24-.5Zm-5.81,12.81c.84,0,1.58-.21,2.22-.63.63-.42,1.13-1,1.48-1.73.35-.73.53-1.54.53-2.45s-.18-1.74-.53-2.47-.85-1.3-1.48-1.73c-.63-.42-1.37-.63-2.22-.63s-1.55.21-2.19.63c-.63.42-1.13,1-1.48,1.73s-.53,1.55-.53,2.47.18,1.72.53,2.45c.35.73.85,1.31,1.48,1.73.63.42,1.36.63,2.19.63Z"/><path class="cls-2" d="m100.87,27.52c-.5,0-.91-.17-1.24-.5s-.49-.75-.49-1.25v-11.89c0-.5.16-.92.49-1.25s.74-.5,1.24-.5.91.17,1.24.5c.33.34.49.75.49,1.25v2.7l-.2-1.93c.21-.46.48-.87.82-1.22.33-.35.71-.65,1.14-.89.42-.24.87-.42,1.35-.53.48-.12.96-.17,1.44-.17.57,0,1.06.16,1.45.49.39.33.59.71.59,1.15,0,.63-.16,1.09-.49,1.37-.33.28-.68.42-1.07.42-.36,0-.7-.07-.99-.2-.3-.13-.64-.2-1.02-.2-.35,0-.7.08-1.05.24-.35.16-.68.42-.98.76s-.54.77-.72,1.28c-.18.51-.27,1.11-.27,1.8v6.82c0,.5-.16.92-.49,1.25-.33.34-.74.5-1.24.5Z"/><path class="cls-2" d="m123.19,6.23c.5,0,.91.16,1.24.49.33.33.49.75.49,1.27v17.78c0,.5-.16.92-.49,1.25-.33.34-.74.5-1.24.5s-.91-.17-1.24-.5c-.33-.34-.49-.75-.49-1.25v-1.41l.63.26c0,.25-.13.55-.4.91-.27.35-.63.7-1.09,1.05s-1,.64-1.63.88c-.62.24-1.3.36-2.03.36-1.32,0-2.52-.34-3.6-1.02-1.07-.68-1.92-1.62-2.55-2.82-.62-1.2-.94-2.58-.94-4.13s.31-2.96.94-4.16c.62-1.2,1.46-2.14,2.52-2.82,1.06-.68,2.23-1.02,3.51-1.02.83,0,1.58.13,2.27.37s1.29.57,1.8.95.9.77,1.18,1.17c.28.39.42.72.42.99l-1.04.37v-7.71c0-.5.16-.92.49-1.25.33-.34.74-.5,1.24-.5Zm-5.81,18.42c.84,0,1.58-.21,2.22-.63.63-.42,1.13-1,1.48-1.73.35-.73.53-1.54.53-2.45s-.18-1.74-.53-2.47-.85-1.3-1.48-1.73c-.63-.42-1.37-.63-2.22-.63s-1.55.21-2.19.63c-.63.42-1.13,1-1.48,1.73s-.53,1.55-.53,2.47.18,1.72.53,2.45c.35.73.85,1.31,1.48,1.73.63.42,1.36.63,2.19.63Z"/><path class="cls-2" d="m130.19,27.49c-.56,0-.98-.15-1.28-.45-.3-.3-.45-.72-.45-1.28v-.49c0-.56.15-.98.45-1.28.3-.3.72-.44,1.28-.44h.37c.56,0,.98.15,1.28.44.3.3.45.72.45,1.28v.49c0,.56-.15.98-.45,1.28-.3.3-.72.45-1.28.45h-.37Z"/><path class="cls-2" d="m142.68,11.84c1.09,0,2.05.11,2.86.35.81.23,1.45.55,1.9.96.45.41.68.91.68,1.48,0,.38-.11.74-.35,1.08-.23.33-.57.5-1.01.5-.31,0-.56-.04-.76-.13s-.38-.2-.53-.33c-.15-.13-.33-.26-.55-.37-.19-.11-.48-.21-.88-.27-.39-.07-.69-.1-.88-.1-.98,0-1.81.21-2.49.63-.68.42-1.2.99-1.57,1.71-.36.72-.55,1.55-.55,2.49s.19,1.74.56,2.46c.37.72.89,1.29,1.55,1.71.66.42,1.43.63,2.29.63.48,0,.89-.03,1.24-.09s.63-.14.86-.26c.27-.15.51-.32.72-.49.21-.17.53-.26.95-.26.5,0,.88.16,1.15.47.27.32.4.7.4,1.17s-.27.92-.81,1.31c-.54.39-1.24.71-2.12.95-.87.24-1.82.36-2.83.36-1.52,0-2.83-.35-3.94-1.05-1.11-.7-1.97-1.65-2.58-2.86-.6-1.21-.91-2.56-.91-4.06,0-1.57.32-2.96.96-4.16s1.54-2.14,2.68-2.82c1.14-.68,2.45-1.02,3.93-1.02Z"/><path class="cls-2" d="m154.53,25.77c0,.5-.17.92-.5,1.25s-.75.5-1.25.5-.88-.17-1.21-.5c-.33-.34-.49-.75-.49-1.25V7.98c0-.5.17-.92.5-1.25s.75-.5,1.25-.5.91.17,1.22.5c.32.34.47.75.47,1.25v17.78Z"/><path class="cls-2" d="m169.98,12.13c.5,0,.91.17,1.24.5.33.34.49.75.49,1.25v7.31c0,2.03-.57,3.65-1.7,4.83-1.13,1.19-2.76,1.78-4.89,1.78s-3.76-.59-4.88-1.78c-1.12-1.19-1.68-2.8-1.68-4.83v-7.31c0-.5.16-.92.49-1.25s.74-.5,1.24-.5.91.17,1.24.5c.33.34.49.75.49,1.25v7.31c0,1.17.26,2.04.78,2.6.52.57,1.3.85,2.33.85s1.84-.28,2.36-.85c.52-.57.78-1.43.78-2.6v-7.31c0-.5.16-.92.49-1.25.33-.34.74-.5,1.24-.5Z"/><path class="cls-2" d="m183.42,11.84c1.34,0,2.55.34,3.61,1.02,1.07.68,1.91,1.62,2.53,2.81.62,1.19.94,2.57.94,4.14s-.31,2.96-.94,4.16c-.62,1.2-1.46,2.14-2.5,2.82-1.05.68-2.22,1.02-3.53,1.02-.77,0-1.49-.13-2.16-.37-.67-.25-1.26-.57-1.77-.95-.51-.38-.9-.77-1.18-1.17-.28-.39-.42-.72-.42-.99l.89-.37v2.1c0,.5-.16.92-.49,1.25-.33.33-.74.5-1.24.5s-.91-.16-1.24-.49-.49-.75-.49-1.27V7.98c0-.5.16-.92.49-1.25s.74-.5,1.24-.5.91.17,1.24.5c.33.34.49.75.49,1.25v7.31l-.49-.26c0-.25.13-.55.4-.91.27-.35.63-.71,1.09-1.06s.99-.65,1.6-.88,1.24-.35,1.91-.35Zm-.43,3.17c-.84,0-1.58.21-2.22.63-.63.42-1.13.99-1.48,1.71-.35.72-.53,1.54-.53,2.46s.18,1.72.53,2.46.85,1.32,1.48,1.74,1.37.63,2.22.63,1.58-.21,2.2-.63c.62-.42,1.11-1,1.47-1.74.35-.74.53-1.56.53-2.46s-.18-1.74-.53-2.46c-.36-.72-.84-1.29-1.47-1.71-.62-.42-1.36-.63-2.2-.63Z"/><path class="cls-1" d="m19,12.74c-.43.72-1.08,1.79-1.89,3.1-.53.85-1.1,1.48-1.42,2.59-.07.26-.21.8-.25,1.5-.02.44-.02,1.29.28,2.29.14.48.55,1.78,1.77,2.93.22.21,1.27,1.16,2.97,1.58,1.52.37,2.69.11,3.59-.1,1.15-.26,1.45-.57,1.6-.81.27-.44.22-.96.17-1.48-.05-.54-.11-1.07-.41-1.21-.38-.17-.78.41-1.53.81-.99.53-2.42.64-3.59.07-1.64-.8-2.05-2.57-2.1-2.84-.21-1,0-1.88.08-2.14.03-.12.16-.56.45-1.11.68-1.26,1.41-1.46,1.37-2.13-.02-.35-.22-.42-.53-.96-.42-.75-.52-1.51-.53-2.09Z"/><path class="cls-3" d="m21.5,7.12c-.24-.09-.91.9-1.33,1.97-.2.52-.69,1.81-.5,3.52.02.19.3,2.45,1.94,4.26.38.42.65.61,1.46,1.5.39.43.88.99,1.42,1.68.54.7.82,1.04,1.05,1.46.28.49.67,1.18.78,2.1.14,1.16-.26,1.88-.07,1.97.21.09.9-.69,1.26-1.62.55-1.45.11-2.84-.02-3.25-.23-.71-.55-1.23-.75-1.54-.33-.52-.64-.87-1.18-1.48-.48-.55-1-1.07-1.18-1.25-.26-.27-.39-.39-.66-.68,0,0-.35-.37-.83-.97-.26-.32-.26-.34-.25-.35.08-.11,1.53.82,2.68,1.69,1.81,1.39,2.07,1.82,2.22,2.2.34.85.21,1.64.34,1.65.13,0,.34-.77.34-1.56.01-1.3-.52-2.28-.62-2.45-.72-1.28-1.93-2.03-2.68-2.49-.44-.28-.85-.48-1.37-.96-.52-.48-.85-.95-1.03-1.21-.24-.34-.58-.84-.8-1.44-.53-1.46.03-2.65-.23-2.75Z"/><path class="cls-2" d="m9.59,0c-.88-.14-2.22,2.52-2.39,4.92-.01.16-.17,2.72.66,2.97.7.21,1.87-1.24,2.39-2.62C11.1,3.02,10.46.14,9.59,0Zm-1.23,7.42c-.13.06-.24.07-.34.05,0,0-.16-.04-.31-.22-.2-.25-.29-1.08-.21-2.18l.18-1.35c0-.07.09-.81.71-1.15.67-.37,1.53-.05,1.85.46.25.4.09.92-.22,1.95-.03.08-.25.79-.74,1.58,0,0-.39.63-.91.86Z"/><path class="cls-2" d="m1.26.04c.88-.17,2.31,2.44,2.57,4.83.02.16.27,2.71-.55,3-.69.24-1.92-1.17-2.48-2.53C-.13,3.11.4.21,1.26.04Zm1.51,7.37c.13.05.24.06.35.04,0,0,.16-.04.3-.23.19-.26.25-1.09.13-2.19l-.23-1.35c-.01-.07-.12-.8-.76-1.12-.68-.34-1.53,0-1.84.53-.24.41-.06.92.3,1.94.03.08.28.78.8,1.55,0,0,.42.61.94.83Z"/><path class="cls-2" d="m195.57,9.22c.01-.13-.05-.26-.15-.35l-2.42-1.93,1.84-3.28c.11-.19.04-.44-.16-.55-.12-.07-.27-.07-.39,0l-7.22,4c-.2.11-.27.35-.16.55.03.05.06.09.1.12l2.42,1.93-1.84,3.28c-.11.19-.04.44.16.55.12.07.27.07.39,0l7.22-4c.12-.06.19-.18.21-.32Zm-6.58,2.93l1.32-2.34c.1-.17.06-.39-.1-.51l-2.22-1.77,5.46-3.02-1.32,2.34c-.1.17-.06.39.1.51l2.22,1.77-5.46,3.02Z"/></g></svg>