<?xml version="1.0" encoding="UTF-8"?><svg id="Layer_2" xmlns="http://www.w3.org/2000/svg" viewBox="0 0 60.25 93.2"><defs><style>.cls-1{fill:#36a6b7;}.cls-1,.cls-2{stroke-width:0px;}.cls-2{fill:#d2648a;}</style></defs><g id="_レイヤー_1"><path class="cls-1" d="m16.82,26.48c-2.03,3.38-5.09,8.43-8.91,14.58-2.5,4.02-5.19,6.97-6.7,12.21-.35,1.2-1,3.75-1.17,7.06-.11,2.06-.11,6.07,1.3,10.78.67,2.25,2.58,8.36,8.32,13.77,1.03.98,5.96,5.48,13.98,7.45,7.13,1.75,12.67.5,16.88-.47,5.43-1.24,6.83-2.7,7.52-3.82,1.27-2.07,1.02-4.52.78-6.96-.26-2.56-.5-5.03-1.94-5.68-1.78-.81-3.68,1.93-7.19,3.8-4.65,2.48-11.37,3.02-16.91.32-7.71-3.76-9.64-12.1-9.91-13.35-1.01-4.73.04-8.86.37-10.08.15-.57.73-2.65,2.11-5.21,3.2-5.95,6.62-6.88,6.46-10.02-.08-1.64-1.05-1.98-2.47-4.52-1.98-3.53-2.46-7.11-2.5-9.85Z"/><path class="cls-2" d="m28.58.03c-1.15-.41-4.29,4.24-6.25,9.26-.95,2.44-3.24,8.51-2.37,16.59.1.89,1.43,11.53,9.15,20.03,1.79,1.97,3.04,2.85,6.88,7.06,1.85,2.03,4.15,4.66,6.69,7.91,2.56,3.27,3.84,4.91,4.95,6.89,1.31,2.32,3.14,5.58,3.66,9.91.66,5.45-1.22,8.86-.32,9.26.99.44,4.24-3.23,5.92-7.65,2.6-6.84.51-13.36-.11-15.29-1.06-3.33-2.59-5.79-3.53-7.27-1.54-2.43-2.99-4.08-5.54-6.97-2.27-2.57-4.71-5.06-5.54-5.9-1.24-1.26-1.84-1.83-3.13-3.2,0,0-1.65-1.75-3.91-4.55-1.21-1.49-1.21-1.59-1.18-1.63.39-.51,7.21,3.84,12.6,7.97,8.52,6.53,9.74,8.57,10.45,10.34,1.6,4.01,1.01,7.72,1.62,7.75.6.03,1.58-3.61,1.62-7.32.06-6.13-2.45-10.71-2.91-11.52-3.39-6.01-9.07-9.54-12.6-11.74-2.09-1.3-3.99-2.24-6.46-4.52-2.44-2.25-4-4.49-4.85-5.71-1.11-1.6-2.75-3.97-3.77-6.78-2.5-6.9.14-12.48-1.08-12.92Z"/></g></svg>